<svg width="37" height="42" viewBox="0 0 37 42" fill="none" xmlns="http://www.w3.org/2000/svg">
    <path d="M14.2811 31.6679H12.2115C11.1295 34.5939 10.2035 37.5772 9.38391 40.5883C9.31397 40.956 9.19182 41.3676 9.06525 41.7941C9.04498 41.8624 9.0246 41.9311 9.00431 42H11.024V41.9982C11.9116 38.6062 13.0805 34.8509 14.2811 31.6679Z" fill="#539676" style="fill:#539676;fill:color(display-p3 0.3255 0.5882 0.4627);fill-opacity:1;"/>
    <path d="M21.6343 33.8688C22.1712 36.5544 22.5581 39.2684 22.7931 41.9982L24.7386 41.9982C24.5116 39.3461 24.1497 36.7078 23.6545 34.0937C23.0327 34.0259 22.35 33.9501 21.6343 33.8688Z" fill="#539676" style="fill:#539676;fill:color(display-p3 0.3255 0.5882 0.4627);fill-opacity:1;"/>
    <path fill-rule="evenodd" clip-rule="evenodd" d="M15.4445 4.13082C15.1156 4.04421 14.7718 4.00443 14.4364 3.97021C14.2371 3.95043 14.0363 3.95043 13.837 3.97021C13.4809 4.00651 13.1126 4.04716 12.7641 4.14662C12.4156 4.24609 12.0864 4.39347 11.7651 4.54593C11.25 4.79022 10.785 5.15395 10.3586 5.52603C9.90296 5.92533 9.53386 6.39941 9.17201 6.88256C8.89152 7.25942 8.64462 7.66027 8.43418 8.08047C7.93577 9.06928 7.54168 10.1361 7.38375 11.236C7.29357 11.8602 7.21464 12.4804 7.246 13.1098C6.88189 13.2462 6.52815 13.4136 6.18808 13.6133C5.71137 13.8983 5.26645 14.2336 4.86092 14.6134C4.45198 14.9916 4.10534 15.436 3.78261 15.8883C3.55086 16.2126 3.35256 16.5597 3.19075 16.9243C2.96835 17.4267 2.7579 17.9316 2.6391 18.4696C2.4004 19.5535 2.38156 20.6523 2.64417 21.7366C2.67858 21.8757 2.71786 22.0135 2.7619 22.1495C2.55809 22.2746 2.3682 22.4257 2.18144 22.5742C2.15282 22.597 2.12428 22.6197 2.09577 22.6422C1.88255 22.8094 1.68962 23.0011 1.52094 23.2132C1.24783 23.5574 0.9816 23.8968 0.78383 24.2895C0.578712 24.6901 0.410081 25.1084 0.279988 25.5394C0.152017 25.9729 0.0968739 26.4215 0.0417217 26.8702L0.0409267 26.8767C0.00442164 27.1723 -0.00769324 27.4705 0.00470518 27.7682C0.0256895 28.2273 0.0844467 28.684 0.180379 29.1334C0.240981 29.4148 0.326688 29.69 0.436466 29.956L0.439642 29.9637C0.609879 30.3793 0.777824 30.7892 1.03521 31.1586C1.2826 31.5136 1.55245 31.8723 1.877 32.1627C2.5652 32.7769 3.38635 33.2517 4.29333 33.447C5.59441 33.729 6.93751 33.81 8.26466 33.749C8.85781 33.7224 9.44937 33.6727 10.0409 33.6231C10.6505 33.572 11.26 33.5209 11.8712 33.4949C12.469 33.4662 13.0678 33.4717 13.6649 33.5112C13.949 33.5317 14.2335 33.5384 14.5181 33.5452C14.8235 33.5524 15.1291 33.5596 15.4343 33.5838C15.6326 33.5999 15.8304 33.62 16.0286 33.6434C17.4673 33.8611 18.8676 34.25 20.2678 34.6389C20.9259 34.8216 21.5841 35.0044 22.2462 35.1694C23.4658 35.4732 24.7092 35.7019 25.9611 35.8032C26.5018 35.848 27.0448 35.8568 27.5867 35.8297C28.1517 35.7999 28.724 35.74 29.2663 35.5712C30.9647 35.0427 32.3835 33.8651 33.3195 32.3601C33.573 31.9543 33.7541 31.5194 33.9352 31.0777C34.0498 30.8008 34.1398 30.5144 34.204 30.2217C34.3945 29.3331 34.4238 28.4553 34.2116 27.5674C34.1806 27.436 34.1401 27.3069 34.0906 27.1812C34.0751 27.1428 34.0597 27.1043 34.0443 27.0656C33.9515 26.8334 33.8574 26.598 33.7338 26.3808C33.5192 26.0011 33.2479 25.6565 32.9293 25.3589C32.9088 25.3401 32.8882 25.3214 32.8674 25.303C33.3243 24.6813 33.7304 24.0227 34.0812 23.3338C34.4118 22.6865 34.6995 22.0181 34.9422 21.3329C35.124 20.8309 35.259 20.3131 35.3453 19.7862C35.4094 19.3749 35.4725 18.9563 35.4837 18.5389C35.4948 18.1367 35.439 17.7466 35.3821 17.3486L35.3801 17.3344C35.3508 17.1176 35.2993 16.9044 35.2265 16.6981C35.1019 16.3543 34.9614 15.9917 34.7531 15.6853C34.5715 15.4179 34.367 15.1629 34.1386 14.9327C34.6033 14.4779 35.0154 13.9708 35.3812 13.4307C35.5658 13.159 35.7279 12.8727 35.8658 12.5744C36.06 12.1526 36.2462 11.7177 36.3689 11.2676C36.4899 10.8237 36.5501 10.3601 36.5935 9.90309C36.6197 9.62867 36.6224 9.35251 36.6015 9.07763C36.5725 8.63621 36.5061 8.19805 36.403 7.76792C36.298 7.35301 36.127 6.96025 35.9546 6.57002C35.68 5.94747 35.2573 5.37429 34.7915 4.88424C34.5017 4.57932 34.1641 4.32449 33.8276 4.07475C33.6157 3.91759 33.3901 3.77982 33.1536 3.66311C32.766 3.46648 32.3616 3.30514 31.9452 3.18104C31.5178 3.05944 31.0683 3.00353 30.6286 2.9607C30.336 2.93251 30.0416 2.93081 29.7487 2.95562C29.2654 2.99083 28.7859 3.06709 28.3155 3.18358C28.227 3.2066 28.1394 3.23199 28.0526 3.25934C27.9533 3.00683 27.8401 2.75697 27.7 2.528C27.014 1.40016 25.9093 0.618981 24.652 0.251261C24.4382 0.189925 24.2203 0.144069 24 0.114047C23.9781 0.110969 23.9561 0.107883 23.9342 0.104797C23.5653 0.0529299 23.199 0.00143479 22.8257 6.43114e-05C22.5893 -0.00105841 22.353 0.0125198 22.1183 0.0407205C21.7108 0.0897256 21.3012 0.140546 20.9009 0.235289C20.2457 0.39029 19.6111 0.650562 19.0072 0.943867C18.369 1.25387 17.8079 1.66515 17.2541 2.10547C16.7982 2.46903 16.3862 2.88457 16.0262 3.34367C15.8227 3.60255 15.627 3.86285 15.4445 4.13082ZM17.2165 4.97379C19.8622 1.28764 25.1309 0.971497 26.2685 4.02945C26.4173 4.42917 26.4954 4.88655 26.4878 5.40158C26.4838 5.6725 26.4562 5.95937 26.4026 6.26219C26.6188 6.10451 26.8341 5.96169 27.048 5.83309C27.5172 5.55106 27.98 5.33742 28.4314 5.18536C33.5679 3.45528 37.2443 9.69761 32.4091 13.8794C31.8412 14.3705 31.156 14.8332 30.3418 15.2512C30.1913 15.3285 30.0364 15.4043 29.877 15.4784C30.0607 15.4731 30.2362 15.474 30.4039 15.4809C31.3918 15.5216 32.1068 15.7698 32.6023 16.1644C34.6674 17.8088 32.9168 21.9952 31.1986 24.2911C30.4699 25.2648 29.7471 25.8984 29.3235 25.8541C30.3454 25.9617 31.0862 26.2971 31.5865 26.7736C33.703 28.7896 31.5142 33.3316 28.0894 33.8401C25.5688 34.0887 23.2036 33.4295 20.8047 32.7609C18.6189 32.1517 16.405 31.5346 14.0199 31.5895C12.6587 31.4511 11.3528 31.5608 10.0436 31.6707C8.41747 31.8073 6.78614 31.9444 5.03696 31.6069C1.28174 31.0204 1.10531 25.5636 3.66046 23.884C4.12218 23.5805 4.6731 23.4003 5.30821 23.3945C5.48525 23.3929 5.66882 23.4048 5.85883 23.4314C5.72887 23.3156 5.60817 23.1951 5.49649 23.0705C5.07513 22.6001 4.78216 22.0706 4.6043 21.5119C3.84374 19.1224 5.18799 16.1974 7.59723 15.0709C7.62814 15.0565 7.65924 15.0423 7.6905 15.0284C8.24184 14.7841 8.84703 14.6333 9.49402 14.6032C9.31135 14.1348 9.21302 13.6105 9.18915 13.0577C9.18371 12.9317 9.18214 12.8041 9.18432 12.6755C9.23855 9.47746 11.6115 5.5656 14.5065 5.92994C15.0839 6.0026 15.682 6.24536 16.2866 6.69779C16.5344 6.05859 16.8503 5.48392 17.2165 4.97379Z" fill="#539676" style="fill:#539676;fill:color(display-p3 0.3255 0.5882 0.4627);fill-opacity:1;"/>
    <path d="M22.6888 20.078C23.368 21.122 24.1572 22.0237 24.9624 22.704C25.3098 22.9885 25.4507 23.3857 25.4507 23.7795C25.4507 24.6507 24.756 25.5354 24.1561 25.5354C24.0615 25.5381 23.9677 25.518 23.8825 25.4767C23.7973 25.4354 23.7233 25.374 23.6668 25.298C23.2245 24.7444 22.7352 23.5737 22.5302 22.688C22.5302 22.688 22.8456 24.776 23.0351 25.5669C23.0483 25.6186 23.0536 25.672 23.051 25.7252C23.051 26.2628 22.3563 26.5158 21.6616 26.5158C20.9197 26.5158 20.1765 26.2472 20.1765 25.7408C20.1794 25.6817 20.19 25.6233 20.208 25.5669C20.4449 24.7919 20.6503 22.7987 20.6503 22.7987C20.4289 23.7636 19.8451 24.8551 19.3557 25.3927C19.2059 25.5337 19.0085 25.6129 18.803 25.6145C18.1716 25.6145 17.4628 24.8391 17.4628 24.0173V23.9062C17.3418 24.0041 17.1922 24.0597 17.0368 24.0645C16.847 24.0645 16.6891 23.9697 16.5945 23.7164C16.3736 23.1628 16.1208 22.7675 15.8998 22.3562C15.8998 22.3562 16.1208 24.3335 16.3421 25.5357C16.3549 25.582 16.3602 25.6301 16.3576 25.678C16.3576 26.2476 15.6629 26.5162 14.9685 26.5162C14.2742 26.5162 13.5947 26.2476 13.5947 25.7096C13.5927 25.6512 13.5981 25.5928 13.6106 25.5357C13.9265 24.3494 14.0529 22.7991 14.0529 22.7991C13.816 23.59 13.4212 24.634 13.0582 25.1085C12.9003 25.3143 12.7109 25.3931 12.5214 25.3931C11.9212 25.3931 11.2899 24.5073 11.2899 23.7008C11.2899 23.3842 11.3844 23.068 11.6521 22.8296C12.3468 22.2125 13.231 21.1529 13.9098 20.0773H12.111C11.6217 20.0773 11.3848 19.6504 11.3848 19.2231C11.3848 18.7959 11.6217 18.369 12.111 18.369H14.0532V17.737C14.0532 17.374 14.4951 17.199 14.953 17.199C15.3952 17.199 15.8371 17.3733 15.8371 17.737V18.3697H17.5736C17.9358 18.3697 18.1104 18.7966 18.1104 19.2239C18.1104 19.6511 17.9369 20.078 17.5736 20.078H16.074C16.7684 20.584 17.637 21.3275 18.1263 21.8498C18.2505 21.995 18.3176 22.1806 18.3151 22.3718C18.3148 22.4893 18.2988 22.6063 18.2676 22.7196C19.1577 21.9582 19.9292 21.0679 20.5568 20.078H18.9C18.5212 20.078 18.3317 19.6511 18.3317 19.2239C18.3317 18.7966 18.5212 18.3697 18.9 18.3697H20.7314V17.6895C20.7314 17.3265 21.1733 17.1359 21.6311 17.1359C22.0734 17.1359 22.5153 17.3257 22.5153 17.6895V18.3697H24.5836C25.0729 18.3697 25.3098 18.7966 25.3098 19.2239C25.3098 19.6511 25.0729 20.078 24.5836 20.078H22.6888ZM20.6209 14.8105C21.868 15.396 23.289 15.8389 24.5991 16.1079C25.057 16.2026 25.2468 16.4872 25.2468 16.7878C25.2468 17.2466 24.8204 17.7679 24.2688 17.7679C24.1942 17.765 24.1202 17.7544 24.0478 17.7363C22.39 17.3566 20.7325 16.6447 19.28 15.7431V17.4041C19.28 17.8786 18.8062 18.116 18.3328 18.116C17.8594 18.116 17.3853 17.8786 17.3853 17.4041V15.7597C15.9328 16.6614 14.2908 17.357 12.6489 17.737C12.5766 17.7552 12.5025 17.7658 12.428 17.7686C11.8756 17.7686 11.45 17.2466 11.45 16.7885C11.45 16.4879 11.6394 16.2033 12.0973 16.1086C13.4078 15.8396 14.8284 15.3967 16.0914 14.8112H12.4428C11.906 14.8112 11.6376 14.4159 11.6376 14.0203C11.6376 13.6409 11.906 13.2452 12.4428 13.2452H17.3842V12.8975C17.3842 12.5345 17.8579 12.3439 18.3317 12.3439C18.8055 12.3439 19.2789 12.5334 19.2789 12.8975V13.2452H24.1887C24.7415 13.2452 25.0255 13.6409 25.0255 14.0203C25.0255 14.4159 24.7415 14.8112 24.1887 14.8112L20.6209 14.8105Z" fill="#539676" style="fill:#539676;fill:color(display-p3 0.3255 0.5882 0.4627);fill-opacity:1;"/>
</svg>
